<?xml version="1.0" encoding="UTF-8"?>
<svg width="316px" height="223px" viewBox="0 0 316 223" version="1.1" xmlns="http://www.w3.org/2000/svg" xmlns:xlink="http://www.w3.org/1999/xlink">
    <!-- Generator: Sketch 52.4 (67378) - http://www.bohemiancoding.com/sketch -->
    <title>header</title>
    <desc>Created with Sketch.</desc>
    <defs>
        <linearGradient x1="105.506282%" y1="90.3319759%" x2="1.16862076%" y2="50%" id="linearGradient-1">
            <stop stop-color="#FF1276" offset="0%"></stop>
            <stop stop-color="#FF446B" offset="100%"></stop>
        </linearGradient>
    </defs>
    <g id="main" stroke="none" stroke-width="1" fill="none" fill-rule="evenodd">
        <g id="出题-第二题" transform="translate(-25.000000, -42.000000)">
            <g id="header" transform="translate(25.000000, 42.000000)">
                <g id="Node1" transform="translate(98.000000, 73.000000) scale(-1, 1) translate(-98.000000, -73.000000) translate(0.000000, 19.000000)">
                    <polygon id="Path-2-Copy" fill="url(#linearGradient-1)" points="21.3348787 6.33333415 13.2884096 57.4720697 21.0190028 59.8234443 7.53550928 75.2655217 38.3032582 65.0807071 179.40863 108 195.175895 7"></polygon>
                    <path d="M17,9.2393361 L189,0 L176,101 L38.0031426,65.5283522 L0,78.8907029 L17,59.5557732 L10.9666765,56.2773038 L17,9.2393361 Z M21.9218093,12.5300888 L14.3132122,54.8907029 L24.490317,57.4720697 L14.3132122,68.2596024 L35.2439429,61.5283522 L170.946157,93 L183.940733,6.33333415 L21.9218093,12.5300888 Z" id="Combined-Shape" fill="#2E2E2E"></path>
                </g>
                <g id="欣" transform="translate(187.000000, 0.000000)">
                    <polygon id="Path-9" fill="#2E2E2E" points="90.3575127 27.3295445 90.4113047 10.2856324 42.8180949 0.54417498 23.5109147 15.9143231 26.9982475 28.5744818 0.901360325 37.4982842 8.65990435 76.1091856 18.9471149 80.5557732 30.4223929 110.497124 67.8123201 118.039775 123 99.8907029 122.444879 76.8540737 128.3827 37.7696109 98.9773631 40.0320684"></polygon>
                    <polygon id="Path-9" fill="#FFFFFF" points="85.5283832 28.6537523 84.02734 13 44.5870974 4.95930786 29.1700286 16.5678222 31.1700286 28.6123581 6.46449072 38.4485289 11.8790764 71.186382 21.0209 75.025158 33 107 70.763528 112.039775 120.202128 94.9118342 117 74.8907029 125 41.8412698 97.7676551 44"></polygon>
                </g>
                <polygon id="Path-32" fill="#DEDEDE" transform="translate(176.978042, 29.707233) rotate(-11.000000) translate(-176.978042, -29.707233) " points="179.92793 22.2091231 188.530396 20.5044855 195.543849 23.5516247 193.951556 33.1217004 168.34433 44.1370603 158.412235 22.5088392 163.770386 16.2358524 173.971504 15.2774065"></polygon>
                <polygon id="Path-32" fill="#2E2E2E" transform="translate(175.964122, 27.895716) rotate(-11.000000) translate(-175.964122, -27.895716) " points="178.622664 21.247861 186.384514 19.7989481 192.770554 22.6004693 191.454684 31.17603 168.427314 40.8221077 159.15769 21.3136638 163.924216 15.7333153 173.142379 14.9693241"></polygon>
                <polygon id="Path-32" fill="#FF356E" transform="translate(174.820309, 28.728949) rotate(-11.000000) translate(-174.820309, -28.728949) " points="176.450642 24.1382355 181.210545 23.1376806 185.126741 25.0722867 184.319793 30.9941879 170.198412 37.6553405 164.513878 24.183676 167.436918 20.3301353 173.089894 19.8025569"></polygon>
                <g id="Node2" transform="translate(165.000000, 166.000000) scale(-1, 1) translate(-165.000000, -166.000000) translate(28.000000, 109.000000)">
                    <polygon id="Path-2-Copy" fill="#FF446B" points="6 5.06261699e-14 7.87304299 106.02883 260.787831 114 268 103.641017"></polygon>
                    <polygon id="Path-2-Copy-2" fill="#2E2E2E" points="-1.21680443e-13 8 17.6990664 96.1617079 274 109 260.444934 33.1055232"></polygon>
                    <polygon id="Path-2-Copy-3" fill="#F7F7F7" points="4 12 21.548163 92.8604797 269 102 254.985621 36.572775"></polygon>
                </g>
                <g id="qusetion" transform="translate(121.000000, 105.000000)">
                    <polygon id="Path-10-Copy" fill="#FF446B" points="7 4 15.6163759 34.9933539 183.571296 37 190 7.02685761"></polygon>
                    <polygon id="Path-10" fill="#2E2E2E" points="0 0 9.59918676 31 176.883198 28.8926959 186 3.60504626"></polygon>
                </g>
            </g>
        </g>
    </g>
</svg>