<?xml version="1.0" encoding="UTF-8"?>
<svg width="246px" height="50px" viewBox="0 0 246 50" version="1.1" xmlns="http://www.w3.org/2000/svg" xmlns:xlink="http://www.w3.org/1999/xlink">
    <!-- Generator: Sketch 52.4 (67378) - http://www.bohemiancoding.com/sketch -->
    <title>A</title>
    <desc>Created with Sketch.</desc>
    <g id="main" stroke="none" stroke-width="1" fill="none" fill-rule="evenodd">
        <g id="出题-第一题" transform="translate(-63.000000, -289.000000)">
            <g id="A" transform="translate(64.000000, 291.000000)">
                <polygon id="Path-5" fill="#D8D8D8" points="59.9792531 19.0870588 63.0531969 44.16 233.991353 44.16 245 8.64"></polygon>
                <path d="M62.4124628,45.12 L54.8962656,35.7432975 L62.4124628,45.12 L62.4124628,45.12 Z M71.3483212,45.12 L63.9245237,35.8585693 L71.3483212,45.12 L71.3483212,45.12 Z M80.1054411,45.12 L73.5270433,36.9132331 L80.1054411,45.12 L80.1054411,45.12 Z M89.7079606,45.12 L83.1295628,36.9132331 L89.7079606,45.12 L89.7079606,45.12 Z M99.3104802,45.12 L92.7320824,36.9132331 L99.3104802,45.12 L99.3104802,45.12 Z M109.758399,45.12 L109.758399,45.12 L102.334602,35.8585693 L109.758399,45.12 Z M119.057796,45.12 L111.633998,35.8585693 L119.057796,45.12 L119.057796,45.12 Z M127.511793,45.12 L120.933395,36.9132331 L127.511793,45.12 L127.511793,45.12 Z M137.656589,45.12 L131.078191,36.9132331 L137.656589,45.12 L137.656589,45.12 Z M146.955985,45.12 L140.377587,36.9132331 L146.955985,45.12 L146.955985,45.12 Z M155.888288,45.12 L155.888288,45.12 L148.464491,35.8585693 L155.888288,45.12 Z M165.187685,45.12 L157.763887,35.8585693 L165.187685,45.12 L165.187685,45.12 Z M173.641681,45.12 L167.063283,36.9132331 L173.641681,45.12 L173.641681,45.12 Z M183.786477,45.12 L177.20808,36.9132331 L183.786477,45.12 L183.786477,45.12 Z M193.085874,45.12 L186.507476,36.9132331 L193.085874,45.12 L193.085874,45.12 Z M201.53987,45.12 L194.116073,35.8585693 L201.53987,45.12 L201.53987,45.12 Z M210.839267,45.12 L203.415469,35.8585693 L210.839267,45.12 L210.839267,45.12 Z M219.293263,45.12 L212.714866,36.9132331 L219.293263,45.12 L219.293263,45.12 Z M229.43806,45.12 L229.43806,45.12 L222.859662,36.9132331 L229.43806,45.12 Z M235.892519,36.2975293 L228.777459,27.4212588 L235.892519,36.2975293 L235.892519,36.2975293 Z M238.58948,27.006111 L232.159058,18.9839484 L238.58948,27.006111 L238.58948,27.006111 Z M241.286441,17.7146927 L234.695257,9.49197422 L241.286441,17.7146927 L241.286441,17.7146927 Z M243.983402,8.42327446 L237.231456,1.37390099e-15 L243.983402,8.42327446 L243.983402,8.42327446 Z" id="Combined-Shape" stroke="#202020" stroke-width="2" stroke-linecap="round"></path>
                <polygon id="Path-5-Copy" stroke="#202020" stroke-width="3" fill="#FFFFFF" points="52.8630705 11.0117647 55.9539042 37.44 227.83128 37.44 238.900415 0"></polygon>
                <path d="M17.4245136,11.52 L33.1444478,11.52 C37.0104411,11.52 40.1444478,14.6540068 40.1444478,18.52 C40.1444478,19.0792702 40.0774237,19.6365251 39.9448092,20.1798451 L38.3670565,26.6438749 L50.8298755,29.76 L36.2318469,35.3917982 L35.7045257,37.5522254 L34.4578482,42.6598451 C33.6927458,45.7944586 30.8841234,48 27.6574869,48 L11.9375526,48 C8.07155934,48 4.93755259,44.8659932 4.93755259,41 C4.93755259,40.4407298 5.00457669,39.8834749 5.13719125,39.3401549 L10.6241522,16.8601549 C11.3892546,13.7255414 14.197877,11.52 17.4245136,11.52 Z" id="Rectangle-Copy" fill="#D4D4D4"></path>
                <path d="M40.7865124,23.3459157 L31.4731572,21.0172628 L33.4046013,13.104164 C33.5087985,12.6772698 33.5614603,12.2394266 33.5614603,11.8 C33.5614603,8.76243388 31.0990264,6.3 28.0614603,6.3 L12.341526,6.3 C9.80631158,6.3 7.59953685,8.03292541 6.99838497,10.495836 L1.51142398,32.975836 C1.40722683,33.4027302 1.35456504,33.8405734 1.35456504,34.28 C1.35456504,37.3175661 3.81699891,39.78 6.85456504,39.78 L22.5744993,39.78 C25.1097137,39.78 27.3164885,38.0470746 27.9176404,35.584164 L29.8775338,27.554509 L40.7865124,23.3459157 Z" id="Rectangle" stroke="#202020" stroke-width="3" fill="#FFFFFF"></path>
            </g>
        </g>
    </g>
</svg>